<svg width="66" height="63" viewBox="0 0 66 63" fill="none" xmlns="http://www.w3.org/2000/svg">
<path fill-rule="evenodd" clip-rule="evenodd" d="M9.49983 2C9.49983 1.17157 10.1714 0.5 10.9998 0.5H63.9998C64.8283 0.5 65.4998 1.17157 65.4998 2V49C65.4998 56.4558 59.4557 62.5 51.9998 62.5H37.4998V61V59.5H44.1979C43.862 59.1816 43.5506 58.8383 43.2644 58.4691C41.9089 56.7209 41.2337 54.5398 41.0516 52H3.85651C3.85429 52.0573 3.85243 52.1161 3.85099 52.1763C3.82991 53.0626 3.90294 54.2003 4.24532 55.3065C4.58445 56.4021 5.17086 57.4176 6.15247 58.1672C7.12791 58.9121 8.63164 59.5 10.9998 59.5H37.4998C37.5 59.5 37.4998 59.5 37.4998 61C37.4998 62.5 37.5 62.5 37.4998 62.5H10.9998C8.11811 62.5 5.93439 61.7754 4.33172 60.5515C2.73522 59.3324 1.85287 57.7229 1.37947 56.1935C0.90933 54.6747 0.826085 53.1874 0.851843 52.1049C0.864855 51.5581 0.906088 51.1001 0.944923 50.7739C0.964381 50.6104 0.98335 50.4791 0.998116 50.3851C1.0055 50.3381 1.01185 50.3003 1.0167 50.2725L1.0228 50.2383L1.0249 50.2269L1.0257 50.2226L1.02603 50.2209C1.02618 50.2201 1.02632 50.2194 2.49983 50.5L1.02632 50.2194C1.16107 49.5119 1.77962 49 2.49983 49H9.49983V2ZM12.4998 49H42.4998C43.3283 49 43.9998 49.6716 43.9998 50.5C43.9998 53.3125 44.5756 55.2643 45.6352 56.6309C46.6656 57.9599 48.3133 58.9403 50.9065 59.5H51.9998C57.7988 59.5 62.4998 54.799 62.4998 49V3.5H12.4998V49Z" fill="#F51F8A"/>
<path fill-rule="evenodd" clip-rule="evenodd" d="M28.8683 27.8683C31.0249 25.7116 33.95 24.5 37 24.5C40.05 24.5 42.9751 25.7116 45.1317 27.8683C47.2884 30.0249 48.5 32.95 48.5 36C48.5 36.3978 48.342 36.7794 48.0607 37.0607C47.7794 37.342 47.3978 37.5 47 37.5L27 37.5C26.6022 37.5 26.2206 37.342 25.9393 37.0607C25.658 36.7794 25.5 36.3978 25.5 36C25.5 32.95 26.7116 30.0249 28.8683 27.8683ZM37 27.5C34.7457 27.5 32.5837 28.3955 30.9896 29.9896C29.7537 31.2255 28.9376 32.8029 28.6334 34.5L45.3666 34.5C45.0624 32.8029 44.2463 31.2255 43.0104 29.9896C41.4163 28.3955 39.2543 27.5 37 27.5Z" fill="#F51F8A"/>
<path fill-rule="evenodd" clip-rule="evenodd" d="M37 12.5C35.1567 12.5 33.5 14.1236 33.5 16.3333C33.5 17.467 33.9462 18.8388 34.6951 19.9137C35.4642 21.0173 36.3178 21.5 37 21.5C37.6822 21.5 38.5358 21.0173 39.3049 19.9137C40.0538 18.8388 40.5 17.467 40.5 16.3333C40.5 14.1236 38.8433 12.5 37 12.5ZM30.5 16.3333C30.5 12.6521 33.3204 9.5 37 9.5C40.6796 9.5 43.5 12.6521 43.5 16.3333C43.5 18.1452 42.8269 20.1067 41.7662 21.6288C40.7256 23.1221 39.0792 24.5 37 24.5C34.9208 24.5 33.2744 23.1221 32.2338 21.6288C31.1731 20.1067 30.5 18.1452 30.5 16.3333Z" fill="#F51F8A"/>
<path fill-rule="evenodd" clip-rule="evenodd" d="M25 43C25 42.1716 25.6716 41.5 26.5 41.5H37.5C38.3284 41.5 39 42.1716 39 43C39 43.8284 38.3284 44.5 37.5 44.5H26.5C25.6716 44.5 25 43.8284 25 43ZM41.5 43C41.5 42.1716 42.1716 41.5 43 41.5H47.5C48.3284 41.5 49 42.1716 49 43C49 43.8284 48.3284 44.5 47.5 44.5H43C42.1716 44.5 41.5 43.8284 41.5 43Z" fill="#F51F8A"/>
</svg>
